<?xml version="1.0" encoding="utf-8"?>
<!-- Generator: Adobe Illustrator 21.0.2, SVG Export Plug-In . SVG Version: 6.00 Build 0)  -->
<svg version="1.1" id="レイヤー_1" xmlns="http://www.w3.org/2000/svg" xmlns:xlink="http://www.w3.org/1999/xlink" x="0px"
	 y="0px" viewBox="0 0 800 223.5" style="enable-background:new 0 0 800 223.5;" xml:space="preserve">
<path d="M296.2,104.4c-15.4,0-23.2-8.7-23.9-26.2c0-0.9,0.3-1.5,1.2-1.6l8.8-1.7c1.1-0.1,1.7,0.4,1.7,1.4c0.6,12.6,4.6,17,12.4,17
	c7.7,0,11.3-3.7,11.3-17.5c0-11.7-2.2-16-10.3-19.1l-6.1-2.4c-13.9-5.4-17.8-12.3-17.8-28C273.5,9,281,0,296.2,0s22.3,8.4,23,24.2
	c0,0.9-0.4,1.5-1.3,1.6l-8.4,1.3c-0.9,0.3-1.6-0.3-1.6-1.2c-0.3-10-3.6-14.9-11.3-14.9c-7.5,0-11.1,4.5-11.1,14.8
	c0,10.5,2.4,14,10.6,17.2l6.1,2.4c13,5.2,17.6,11.9,17.6,28.8C319.9,94.8,313.4,104.4,296.2,104.4"/>
<path d="M334.5,2.8c0-0.9,0.6-1.5,1.5-1.5h9.3c1.2,0,1.8,0.4,2.1,1.5L365.9,65h0.6l18.1-62.2c0.3-1,1.1-1.5,2.3-1.5h9.1
	c0.9,0,1.5,0.6,1.5,1.5v98.7c0,0.9-0.6,1.5-1.5,1.5h-8.1c-0.9,0-1.5-0.6-1.5-1.5V31.1h-0.7l-15.4,52.3c-0.3,0.9-0.9,1.5-1.8,1.5
	h-4.9c-1,0-1.5-0.6-1.8-1.5l-15.4-52.3h-0.7v70.4c0,0.9-0.6,1.5-1.5,1.5H336c-0.9,0-1.5-0.6-1.5-1.5V2.8z"/>
<path d="M430.8,2.8c0.3-0.9,0.7-1.5,1.7-1.5h9c0.9,0,1.5,0.6,1.6,1.5l21.4,98.7c0.2,0.9-0.4,1.5-1.3,1.5h-9c-1.1,0-1.5-0.6-1.6-1.5
	L448,79.2h-22.6l-4.5,22.2c-0.1,0.9-0.6,1.5-1.5,1.5h-9c-0.9,0-1.5-0.6-1.3-1.5L430.8,2.8z M445.9,68.8l-8.7-44.2h-0.4l-9.3,44.2
	H445.9z"/>
<path d="M513.8,103c-0.9,0-1.3-0.3-1.6-1.1l-12.7-42.4c-1.3,0.2-2.8,0.2-4.2,0.2h-6.1l-0.9,0.9v41c0,0.9-0.6,1.5-1.5,1.5h-9.1
	c-0.9,0-1.5-0.6-1.5-1.5V2.8c0-0.9,0.6-1.5,1.5-1.5h17.8C513.4,1.3,523,9,523,30.6c0,13.6-4.5,21.8-12.4,25.9l14.2,45
	c0.3,0.8,0,1.5-0.8,1.5H513.8z M510.8,30.6c0-13.8-4.5-18.1-15.2-18.1h-6.4l-0.9,0.9v34.4l0.9,0.9h6.4
	C506,48.7,510.8,44.5,510.8,30.6"/>
<path d="M552.2,103c-0.9,0-1.5-0.6-1.5-1.5v-88l-0.9-0.9h-16.7c-0.9,0-1.5-0.6-1.5-1.5V2.8c0-0.9,0.6-1.5,1.5-1.5h47.4
	c0.9,0,1.5,0.6,1.5,1.5V11c0,0.9-0.6,1.5-1.5,1.5h-16.8l-0.9,0.9v88c0,0.9-0.6,1.5-1.5,1.5L552.2,103L552.2,103z"/>
<path d="M620.2,2.8c0-0.9,0.6-1.5,1.5-1.5h21.1c12.9,0,20.2,5.4,23.5,15.8c1.8,5.5,2.4,12.2,2.4,35c0,22.7-0.6,29.4-2.4,35
	C663,97.6,655.7,103,642.8,103h-21.1c-0.9,0-1.5-0.6-1.5-1.5V2.8z M633.2,91.8h8.4c6.9,0,10.8-2.7,12.9-8.7c1.3-4.2,2-9.7,2-30.9
	s-0.6-26.8-2-30.9c-2.1-6-6-8.7-12.9-8.7h-8.4l-0.9,0.9v77.4L633.2,91.8"/>
<path d="M685,2.8c0-0.9,0.6-1.5,1.5-1.5h9.1c0.9,0,1.5,0.6,1.5,1.5v98.7c0,0.9-0.6,1.5-1.5,1.5h-9.1c-0.9,0-1.5-0.6-1.5-1.5V2.8z"/>
<path d="M729.5,103c-0.9,0-1.5-0.6-1.5-1.5V61L708.4,2.8c-0.3-0.9,0-1.5,1.1-1.5h9.4c1.1,0,1.5,0.4,1.8,1.5L734,45.5h0.4l13.3-42.6
	c0.3-1,0.8-1.5,1.6-1.5h9.3c1,0,1.3,0.6,1,1.5L740.1,61v40.5c0,0.9-0.6,1.5-1.5,1.5H729.5z"/>
<path d="M760,90.3c-0.1-0.7,0.2-1.2,0.9-1.4l5.7-1.1c0.7-0.1,1.2,0.2,1.4,0.9c0.7,5.5,3.7,7.7,7.6,7.7c4.4,0,7.1-2.6,7.1-7.7
	c0-4.3-1.5-6.6-6.2-8.5l-4.5-1.7c-7-2.7-11.1-7.4-11.1-15.1c0-8.8,5.6-15.2,14.7-15.2c8.8,0,13.6,5.6,14.4,12
	c0.1,0.8-0.2,1.4-0.8,1.5l-5.4,1.1c-0.7,0.1-1.1-0.2-1.3-0.9c-1-3.9-2.7-6.3-6.8-6.3c-4.3,0-6.4,2.8-6.4,7.2c0,3.2,1.3,5.8,6.2,7.7
	l4.5,1.7c8.3,3.2,11,8.1,11,15.9c0,9.3-5.5,15.8-15.4,15.8C766.5,104,760.9,99.1,760,90.3"/>
<polygon points="0,104.4 60.3,0 120.5,104.4 "/>
<polygon points="191.2,104.4 251.5,0 191.2,0 130.9,104.4 "/>
<polygon points="184.9,0 124.7,104.4 64.4,0 "/>
<path d="M18.1,176.8c1.9-1.1,3.9-1.7,6.2-1.7c0.8,0,1.7,0.1,2.6,0.3s1.8,0.5,2.7,1c0.9,0.5,1.7,1.2,2.4,2c0.8,0.8,1.4,1.9,1.9,3.3
	c1.1-2.1,2.5-3.8,4.4-4.9c1.9-1.1,4.1-1.7,6.6-1.7c4,0,7,1.2,9,3.6c2,2.4,3,5.5,3,9.4v19.3h-4.6V190c0-3.3-0.6-6-1.8-8s-3.3-3-6.3-3
	c-1.7,0-3.1,0.3-4.2,1c-1.1,0.7-2.1,1.6-2.8,2.6c-0.7,1.1-1.2,2.4-1.5,3.7c-0.3,1.4-0.5,2.8-0.5,4.3v16.7h-4.6V189
	c0-1.5-0.1-2.9-0.3-4.2c-0.2-1.3-0.6-2.3-1.2-3.2s-1.3-1.5-2.3-2s-2.2-0.7-3.8-0.7c-1.1,0-2.2,0.3-3.3,0.7c-1.1,0.5-2.1,1.3-2.9,2.3
	c-0.9,1-1.6,2.3-2.1,3.8s-0.8,3.4-0.8,5.5v16.1H9.5v-24.5c0-0.9,0-1.9-0.1-3.3c-0.1-1.3-0.1-2.5-0.2-3.6h4.4
	c0.1,0.9,0.2,1.8,0.2,2.8s0.1,1.9,0.1,2.6H14C14.9,179.4,16.3,177.9,18.1,176.8"/>
<path d="M88.7,187c0-2.7-0.7-4.7-2.1-6.1c-1.4-1.3-3.5-2-6.3-2c-1.9,0-3.6,0.3-5.2,1s-3,1.6-4.1,2.7l-2.6-3c1.3-1.3,3-2.4,5.1-3.2
	s4.5-1.3,7.2-1.3c1.7,0,3.3,0.2,4.8,0.7s2.8,1.2,3.9,2.1c1.1,0.9,2,2.1,2.6,3.6c0.6,1.4,0.9,3.1,0.9,5v13.8c0,1.2,0,2.5,0.1,3.8
	s0.2,2.4,0.4,3.3h-4.1c-0.1-0.8-0.2-1.6-0.3-2.5c-0.1-0.9-0.1-1.8-0.1-2.6h-0.1c-1.4,2.1-3.1,3.6-4.9,4.5s-4,1.4-6.6,1.4
	c-1.2,0-2.5-0.2-3.7-0.5c-1.3-0.3-2.5-0.9-3.5-1.7c-1.1-0.8-1.9-1.8-2.6-3s-1.1-2.7-1.1-4.5c0-2.4,0.6-4.3,1.9-5.8
	c1.2-1.4,2.9-2.5,4.9-3.2c2.1-0.7,4.4-1.2,7.1-1.3c2.7-0.2,5.4-0.3,8.3-0.3L88.7,187L88.7,187z M87.3,191.6c-1.9,0-3.8,0.1-5.7,0.2
	c-1.9,0.2-3.6,0.5-5.2,0.9c-1.6,0.5-2.8,1.1-3.8,2s-1.5,2.1-1.5,3.6c0,1.1,0.2,2.1,0.6,2.8c0.4,0.8,1,1.4,1.7,1.9s1.5,0.8,2.4,1
	s1.8,0.3,2.6,0.3c1.6,0,3.1-0.3,4.3-0.8c1.2-0.6,2.3-1.3,3.2-2.3c0.9-1,1.5-2.1,2-3.3c0.4-1.3,0.7-2.6,0.7-4v-2.3L87.3,191.6
	L87.3,191.6z"/>
<polygon points="109.5,190.1 109.7,190.1 124.2,175.9 130.8,175.9 114.9,190.3 132.4,207.3 125.7,207.3 109.7,190.8 109.5,190.8 
	109.5,207.3 104.9,207.3 104.9,156.5 109.5,156.5 "/>
<path d="M144.6,163.8c0,0.9-0.3,1.7-1,2.3s-1.4,0.9-2.2,0.9s-1.5-0.3-2.2-0.9c-0.7-0.6-1-1.4-1-2.3c0-0.9,0.3-1.7,1-2.3
	s1.4-0.9,2.2-0.9s1.5,0.3,2.2,0.9C144.3,162.1,144.6,162.8,144.6,163.8 M143.7,207.3h-4.6v-31.5h4.6V207.3z"/>
<path d="M159.9,175.9c0.1,0.9,0.2,1.8,0.2,2.8c0.1,1,0.1,1.9,0.1,2.6h0.1c0.9-1.9,2.4-3.3,4.4-4.5c2-1.1,4.1-1.7,6.4-1.7
	c4,0,7,1.2,9,3.6c2,2.4,3,5.5,3,9.4v19.3h-4.6V190c0-1.7-0.1-3.2-0.4-4.5c-0.3-1.4-0.7-2.5-1.4-3.5s-1.5-1.7-2.6-2.2
	s-2.5-0.8-4.1-0.8c-1.2,0-2.4,0.3-3.5,0.7c-1.2,0.5-2.2,1.3-3.1,2.3c-0.9,1-1.6,2.3-2.2,3.8c-0.5,1.5-0.8,3.4-0.8,5.5v16.1h-4.6
	v-24.5c0-0.9,0-2-0.1-3.3s-0.1-2.5-0.2-3.6h4.4V175.9z"/>
<path d="M196.6,213.7c1.3,1.6,3,3,5.1,4.1c2.2,1.1,4.5,1.7,6.9,1.7c2.2,0,4.1-0.3,5.7-1c1.6-0.6,2.8-1.5,3.8-2.7
	c1-1.1,1.7-2.4,2.1-3.9c0.5-1.5,0.7-3.1,0.7-4.8v-5.9h-0.1c-1.2,2-2.9,3.5-5.1,4.6c-2.2,1.1-4.5,1.6-6.8,1.6c-2.5,0-4.7-0.4-6.7-1.2
	s-3.7-1.9-5.1-3.3c-1.4-1.4-2.5-3.1-3.3-5.1s-1.2-4.1-1.2-6.4c0-2.2,0.4-4.3,1.2-6.3s1.9-3.7,3.3-5.2c1.4-1.5,3.1-2.6,5.1-3.5
	c2-0.8,4.2-1.3,6.7-1.3c2.3,0,4.5,0.5,6.7,1.6s3.9,2.6,5.2,4.6h0.1v-5.4h4.6v31.2c0,1.7-0.2,3.5-0.7,5.4s-1.3,3.7-2.6,5.3
	s-3,3-5.2,4c-2.2,1.1-5,1.6-8.5,1.6c-2.9,0-5.7-0.6-8.3-1.7c-2.6-1.1-4.9-2.7-6.8-4.6L196.6,213.7z M197.5,191.2
	c0,1.6,0.3,3.2,0.8,4.7s1.3,2.8,2.3,3.9c1,1.1,2.3,2,3.8,2.7c1.5,0.6,3.2,1,5,1s3.4-0.3,4.9-0.9c1.5-0.6,2.7-1.4,3.8-2.5
	s1.9-2.4,2.5-3.9s0.9-3.2,0.9-5c0-1.7-0.3-3.2-0.9-4.7c-0.6-1.5-1.4-2.8-2.5-3.9c-1.1-1.1-2.3-2-3.8-2.7s-3.1-1-4.9-1
	c-1.9,0-3.6,0.3-5,1c-1.5,0.7-2.7,1.6-3.8,2.7c-1,1.1-1.8,2.4-2.3,3.9C197.7,188,197.5,189.5,197.5,191.2"/>
<path d="M265,202.4h0.1l9.8-26.6h5l-15.7,39.6c-1,2.4-2.1,4.4-3.6,5.8c-1.5,1.5-3.6,2.2-6.3,2.2c-1.4,0-2.8-0.1-4.1-0.4l0.5-4.2
	c1.1,0.4,2.2,0.5,3.4,0.5c1.6,0,2.8-0.5,3.7-1.4c0.9-1,1.7-2.3,2.3-4.1l2.6-6.6l-13.5-31.4h5.1L265,202.4z"/>
<path d="M318.3,191.6c0,2.4-0.4,4.6-1.2,6.6c-0.8,2-2,3.8-3.5,5.3s-3.3,2.6-5.3,3.5c-2.1,0.8-4.3,1.2-6.8,1.2
	c-2.4,0-4.7-0.4-6.7-1.2c-2.1-0.8-3.8-2-5.3-3.5s-2.6-3.2-3.5-5.3c-0.8-2-1.2-4.2-1.2-6.6c0-2.4,0.4-4.6,1.2-6.6
	c0.8-2,2-3.8,3.5-5.2c1.5-1.5,3.3-2.6,5.3-3.5c2.1-0.8,4.3-1.2,6.7-1.2c2.5,0,4.7,0.4,6.8,1.2c2.1,0.8,3.8,2,5.3,3.5
	s2.6,3.2,3.5,5.2C317.9,187,318.3,189.2,318.3,191.6 M313.4,191.6c0-1.8-0.3-3.4-0.8-5c-0.6-1.5-1.3-2.9-2.4-4
	c-1-1.2-2.3-2.1-3.8-2.7c-1.5-0.7-3.1-1-5-1c-1.8,0-3.5,0.3-4.9,1c-1.5,0.7-2.7,1.6-3.7,2.7c-1,1.1-1.8,2.5-2.4,4s-0.8,3.2-0.8,5
	c0,1.7,0.3,3.4,0.8,4.9c0.6,1.5,1.4,2.9,2.4,4s2.3,2,3.7,2.7c1.5,0.7,3.1,1,4.9,1s3.5-0.3,5-1c1.5-0.6,2.7-1.5,3.8-2.7
	c1-1.2,1.8-2.5,2.4-4S313.4,193.3,313.4,191.6"/>
<path d="M351,207.3c-0.1-0.8-0.2-1.8-0.2-2.8s-0.1-1.9-0.1-2.6h-0.1c-0.9,1.8-2.4,3.3-4.4,4.5c-2,1.1-4.1,1.7-6.4,1.7
	c-4,0-7-1.2-9-3.6c-2-2.4-3-5.5-3-9.4v-19.3h4.6v17.4c0,1.7,0.1,3.2,0.4,4.5s0.7,2.5,1.4,3.5c0.7,1,1.5,1.7,2.6,2.3
	c1.1,0.5,2.5,0.8,4.1,0.8c1.2,0,2.4-0.2,3.5-0.7c1.2-0.5,2.2-1.3,3.1-2.3s1.6-2.3,2.2-3.8c0.5-1.6,0.8-3.4,0.8-5.5v-16.1h4.6v24.5
	c0,0.9,0,2,0.1,3.3c0,1.3,0.1,2.6,0.2,3.6L351,207.3L351,207.3z"/>
<path d="M367.1,179.5c0-1.3-0.1-2.5-0.2-3.6h4.4c0.1,0.9,0.2,1.8,0.2,2.8s0.1,1.9,0.1,2.6h0.1c0.9-1.9,2.2-3.3,4-4.5
	c1.8-1.1,3.8-1.7,6.1-1.7c0.6,0,1.1,0,1.6,0.1c0.5,0,1,0.1,1.4,0.3l-0.6,4.4c-0.3-0.1-0.7-0.2-1.3-0.3c-0.6-0.1-1.3-0.1-1.9-0.1
	c-1.2,0-2.4,0.2-3.5,0.7c-1.1,0.4-2.1,1.2-2.9,2.1c-0.8,1-1.5,2.2-2,3.7s-0.8,3.3-0.8,5.4v16.1h-4.6V183
	C367.2,182,367.1,180.9,367.1,179.5"/>
<path d="M413.8,163.8c0,0.9-0.3,1.7-1,2.3s-1.4,0.9-2.2,0.9c-0.8,0-1.5-0.3-2.2-0.9c-0.7-0.6-1-1.4-1-2.3c0-0.9,0.3-1.7,1-2.3
	s1.4-0.9,2.2-0.9c0.8,0,1.5,0.3,2.2,0.9C413.4,162.1,413.8,162.8,413.8,163.8 M412.8,207.3h-4.6v-31.5h4.6V207.3z"/>
<path d="M450.9,202c-1.3,2-3.1,3.5-5.2,4.6c-2.1,1-4.4,1.5-6.6,1.5c-2.5,0-4.7-0.4-6.7-1.3c-2-0.8-3.7-2-5.1-3.5s-2.5-3.2-3.3-5.2
	s-1.2-4.2-1.2-6.5s0.4-4.5,1.2-6.5c0.8-2,1.9-3.8,3.3-5.2c1.4-1.5,3.1-2.6,5.1-3.5c2-0.8,4.2-1.3,6.7-1.3c2.3,0,4.5,0.5,6.6,1.6
	c2.2,1.1,3.9,2.6,5.2,4.7h0.1v-24.8h4.6v50.8H451V202H450.9z M427.5,191.6c0,1.7,0.3,3.4,0.8,4.9s1.3,2.9,2.3,4s2.3,2,3.7,2.7
	c1.5,0.7,3.2,1,5,1s3.4-0.3,4.9-1c1.5-0.6,2.7-1.5,3.8-2.6c1.1-1.1,1.9-2.5,2.5-4s0.9-3.2,0.9-5s-0.3-3.5-0.9-5s-1.4-2.9-2.5-4
	s-2.4-2-3.8-2.7c-1.5-0.6-3.1-1-4.9-1c-1.9,0-3.6,0.3-5,1c-1.5,0.7-2.7,1.6-3.7,2.7c-1,1.1-1.8,2.5-2.3,4
	C427.8,188.2,427.5,189.9,427.5,191.6"/>
<path d="M496.5,190.7v1c0,0.4,0,0.7-0.1,1.1h-26.1c0,1.6,0.4,3.1,0.9,4.4c0.6,1.4,1.4,2.6,2.4,3.6s2.2,1.9,3.6,2.5s2.9,0.9,4.5,0.9
	c2.4,0,4.4-0.6,6.2-1.7c1.7-1.1,3-2.4,3.9-3.8l3.4,2.7c-1.9,2.4-4,4.1-6.2,5.1c-2.3,1-4.7,1.5-7.3,1.5c-2.3,0-4.5-0.4-6.5-1.2
	s-3.7-2-5.1-3.5s-2.6-3.2-3.4-5.3c-0.8-2-1.3-4.2-1.3-6.6c0-2.4,0.4-4.6,1.2-6.6c0.8-2,1.9-3.8,3.4-5.2c1.4-1.5,3.1-2.6,5-3.5
	c1.9-0.8,4-1.2,6.3-1.2c2.5,0,4.6,0.4,6.5,1.2s3.5,1.9,4.7,3.4c1.3,1.4,2.2,3.1,2.9,5C496.1,186.5,496.5,188.5,496.5,190.7
	 M491.8,189.2c-0.1-3-1.1-5.4-2.9-7.4c-1.8-1.9-4.3-2.9-7.5-2.9c-1.5,0-2.9,0.3-4.2,0.8c-1.3,0.5-2.4,1.3-3.4,2.3s-1.8,2.1-2.4,3.3
	c-0.6,1.3-0.9,2.5-1,3.9L491.8,189.2L491.8,189.2z"/>
<path d="M525.7,187c0-2.7-0.7-4.7-2.2-6.1c-1.4-1.3-3.5-2-6.3-2c-1.9,0-3.6,0.3-5.2,1c-1.6,0.7-3,1.6-4.1,2.7l-2.5-3
	c1.3-1.3,3-2.4,5.1-3.2c2.1-0.8,4.5-1.3,7.2-1.3c1.7,0,3.3,0.2,4.8,0.7s2.8,1.2,3.9,2.1c1.1,0.9,2,2.1,2.6,3.6c0.6,1.4,1,3.1,1,5
	v13.8c0,1.2,0,2.5,0.1,3.8s0.2,2.4,0.4,3.3h-4.1c-0.1-0.8-0.3-1.6-0.3-2.5c-0.1-0.9-0.1-1.8-0.1-2.6h-0.1c-1.4,2.1-3,3.6-4.9,4.5
	c-1.8,0.9-4,1.4-6.6,1.4c-1.2,0-2.5-0.2-3.7-0.5c-1.3-0.3-2.4-0.9-3.5-1.7s-1.9-1.8-2.6-3s-1.1-2.7-1.1-4.5c0-2.4,0.6-4.3,1.9-5.8
	c1.2-1.4,2.9-2.5,4.9-3.2c2.1-0.7,4.4-1.2,7.1-1.3c2.7-0.2,5.4-0.3,8.3-0.3V187z M524.4,191.6c-1.9,0-3.8,0.1-5.7,0.2
	c-1.9,0.2-3.6,0.5-5.2,0.9c-1.5,0.5-2.8,1.1-3.8,2s-1.5,2.1-1.5,3.6c0,1.1,0.2,2.1,0.6,2.8c0.4,0.8,1,1.4,1.7,1.9s1.5,0.8,2.4,1
	s1.7,0.3,2.6,0.3c1.6,0,3-0.3,4.3-0.8c1.3-0.6,2.3-1.3,3.2-2.3s1.5-2.1,2-3.3c0.4-1.3,0.7-2.6,0.7-4v-2.3L524.4,191.6L524.4,191.6z"
	/>
<path d="M578.4,187c0-2.7-0.7-4.7-2.1-6.1c-1.4-1.3-3.5-2-6.3-2c-1.9,0-3.6,0.3-5.2,1c-1.6,0.7-3,1.6-4.1,2.7l-2.6-3
	c1.3-1.3,3-2.4,5.1-3.2s4.5-1.3,7.2-1.3c1.7,0,3.3,0.2,4.8,0.7s2.8,1.2,3.9,2.1c1.1,0.9,2,2.1,2.6,3.6c0.6,1.4,0.9,3.1,0.9,5v13.8
	c0,1.2,0,2.5,0.1,3.8s0.2,2.4,0.4,3.3H579c-0.1-0.8-0.3-1.6-0.3-2.5c-0.1-0.9-0.1-1.8-0.1-2.6h-0.1c-1.4,2.1-3.1,3.6-4.9,4.5
	c-1.8,0.9-4,1.4-6.6,1.4c-1.2,0-2.5-0.2-3.7-0.5c-1.3-0.3-2.4-0.9-3.5-1.7s-1.9-1.8-2.6-3c-0.7-1.2-1.1-2.7-1.1-4.5
	c0-2.4,0.6-4.3,1.9-5.8c1.2-1.4,2.9-2.5,4.9-3.2c2.1-0.7,4.4-1.2,7.1-1.3c2.7-0.2,5.4-0.3,8.3-0.3L578.4,187L578.4,187z
	 M577.1,191.6c-1.9,0-3.8,0.1-5.7,0.2c-1.9,0.2-3.6,0.5-5.2,0.9c-1.6,0.5-2.8,1.1-3.8,2s-1.5,2.1-1.5,3.6c0,1.1,0.2,2.1,0.6,2.8
	c0.4,0.8,1,1.4,1.7,1.9s1.5,0.8,2.4,1s1.8,0.3,2.6,0.3c1.6,0,3.1-0.3,4.3-0.8c1.3-0.6,2.3-1.3,3.2-2.3s1.5-2.1,2-3.3
	c0.4-1.3,0.7-2.6,0.7-4v-2.3L577.1,191.6L577.1,191.6z"/>
<path d="M611.2,179.5c0-1.3-0.1-2.5-0.2-3.6h4.4c0.1,0.9,0.2,1.8,0.2,2.8s0.1,1.9,0.1,2.6h0.1c0.9-1.9,2.3-3.3,4-4.5
	c1.8-1.1,3.8-1.7,6.1-1.7c0.6,0,1.1,0,1.6,0.1c0.5,0,1,0.1,1.4,0.3l-0.6,4.4c-0.3-0.1-0.7-0.2-1.3-0.3s-1.3-0.1-1.9-0.1
	c-1.2,0-2.4,0.2-3.5,0.7c-1.1,0.4-2.1,1.2-2.9,2.1c-0.8,1-1.5,2.2-2,3.7s-0.8,3.3-0.8,5.4v16.1h-4.6V183
	C611.3,182,611.3,180.9,611.2,179.5"/>
<path d="M662.9,190.7v1c0,0.4,0,0.7-0.1,1.1h-26.1c0,1.6,0.3,3.1,0.9,4.4c0.6,1.4,1.4,2.6,2.4,3.6s2.2,1.9,3.6,2.5
	c1.4,0.6,2.9,0.9,4.5,0.9c2.4,0,4.4-0.6,6.1-1.7c1.7-1.1,3-2.4,3.9-3.8l3.4,2.7c-1.9,2.4-4,4.1-6.2,5.1c-2.3,1-4.7,1.5-7.3,1.5
	c-2.3,0-4.5-0.4-6.5-1.2s-3.7-2-5.1-3.5c-1.4-1.5-2.5-3.2-3.4-5.3c-0.8-2-1.3-4.2-1.3-6.6c0-2.4,0.4-4.6,1.2-6.6s1.9-3.8,3.4-5.2
	c1.4-1.5,3.1-2.6,5-3.5c1.9-0.8,4-1.2,6.3-1.2c2.5,0,4.6,0.4,6.5,1.2s3.5,1.9,4.7,3.4c1.3,1.4,2.2,3.1,2.9,5
	C662.6,186.5,662.9,188.5,662.9,190.7 M658.3,189.2c-0.1-3-1.1-5.4-2.9-7.4c-1.8-1.9-4.3-2.9-7.6-2.9c-1.5,0-2.9,0.3-4.2,0.8
	s-2.5,1.3-3.4,2.3c-1,1-1.8,2.1-2.3,3.3c-0.6,1.3-0.9,2.5-1,3.9L658.3,189.2L658.3,189.2z"/>
<path d="M692.2,187c0-2.7-0.7-4.7-2.2-6.1c-1.4-1.3-3.5-2-6.3-2c-1.9,0-3.6,0.3-5.2,1c-1.6,0.7-3,1.6-4.1,2.7l-2.6-3
	c1.3-1.3,3-2.4,5.1-3.2s4.5-1.3,7.2-1.3c1.7,0,3.3,0.2,4.8,0.7s2.8,1.2,3.9,2.1c1.1,0.9,2,2.1,2.6,3.6c0.6,1.4,0.9,3.1,0.9,5v13.8
	c0,1.2,0,2.5,0.1,3.8s0.2,2.4,0.4,3.3h-4.1c-0.1-0.8-0.2-1.6-0.3-2.5s-0.1-1.8-0.1-2.6h-0.1c-1.4,2.1-3.1,3.6-4.9,4.5
	c-1.8,0.9-4,1.4-6.6,1.4c-1.2,0-2.5-0.2-3.7-0.5c-1.3-0.3-2.4-0.9-3.5-1.7s-1.9-1.8-2.6-3c-0.7-1.2-1-2.7-1-4.5
	c0-2.4,0.6-4.3,1.9-5.8c1.2-1.4,2.9-2.5,4.9-3.2c2.1-0.7,4.4-1.2,7.1-1.3c2.7-0.2,5.4-0.3,8.3-0.3L692.2,187L692.2,187z
	 M690.8,191.6c-1.9,0-3.8,0.1-5.7,0.2c-1.9,0.2-3.6,0.5-5.2,0.9c-1.5,0.5-2.8,1.1-3.8,2s-1.5,2.1-1.5,3.6c0,1.1,0.2,2.1,0.6,2.8
	c0.4,0.8,1,1.4,1.7,1.9s1.5,0.8,2.4,1s1.8,0.3,2.6,0.3c1.6,0,3.1-0.3,4.3-0.8c1.3-0.6,2.3-1.3,3.1-2.3c0.9-1,1.5-2.1,2-3.3
	c0.5-1.3,0.7-2.6,0.7-4v-2.3L690.8,191.6L690.8,191.6z"/>
<rect x="708.4" y="156.5" width="4.6" height="50.8"/>
<path d="M730.8,163.8c0,0.9-0.3,1.7-1,2.3s-1.4,0.9-2.2,0.9s-1.5-0.3-2.2-0.9c-0.7-0.6-1-1.4-1-2.3c0-0.9,0.3-1.7,1-2.3
	s1.4-0.9,2.2-0.9s1.5,0.3,2.2,0.9C730.4,162.1,730.8,162.8,730.8,163.8 M729.8,207.3h-4.6v-31.5h4.6V207.3z"/>
<path d="M756.2,179.7h-8.9V198c0,1.2,0.1,2.1,0.3,2.9c0.2,0.8,0.5,1.4,1,1.8c0.4,0.4,0.9,0.7,1.5,0.9s1.2,0.2,1.9,0.2
	c0.6,0,1.3-0.1,2-0.3s1.4-0.4,2-0.8l0.2,4c-0.8,0.3-1.6,0.6-2.5,0.7c-0.9,0.1-1.8,0.2-2.9,0.2c-0.9,0-1.7-0.1-2.7-0.3
	c-0.9-0.2-1.8-0.6-2.6-1.3c-0.8-0.6-1.5-1.5-2-2.6s-0.8-2.5-0.8-4.2v-19.6h-6.5v-3.8h6.5V167h4.6v8.9h8.9V179.7z"/>
<path d="M774.1,202.4L774.1,202.4l9.9-26.6h5l-15.7,39.6c-0.9,2.4-2.1,4.4-3.6,5.8c-1.4,1.5-3.6,2.2-6.3,2.2c-1.4,0-2.7-0.1-4.1-0.4
	l0.5-4.2c1.1,0.4,2.2,0.5,3.4,0.5c1.6,0,2.8-0.5,3.7-1.4c0.9-1,1.7-2.3,2.4-4.1l2.6-6.6l-13.5-31.4h5.1L774.1,202.4z"/>
<path d="M800,204.1c0,0.9-0.3,1.8-1,2.5s-1.5,1.1-2.6,1.1s-1.9-0.4-2.6-1.1c-0.7-0.7-1-1.6-1-2.5s0.3-1.8,1-2.5s1.5-1.1,2.6-1.1
	s2,0.4,2.6,1.1C799.7,202.3,800,203.2,800,204.1"/>
</svg>
